<svg width="18" height="18" viewBox="0 0 18 18" fill="none" xmlns="http://www.w3.org/2000/svg">
<path d="M15.0405 0.932129H3.04053C1.93596 0.932129 1.04053 1.82756 1.04053 2.93213V14.9321C1.04053 15.0442 1.04975 15.1541 1.06746 15.2611C1.22438 16.2091 2.04803 16.9321 3.04053 16.9321H15.0405C16.1451 16.9321 17.0405 16.0367 17.0405 14.9321V11.1222V2.93213C17.0405 1.82756 16.1451 0.932129 15.0405 0.932129Z" stroke="#4A9DE8" stroke-width="1.5" stroke-linecap="round" stroke-linejoin="round"/>
<path d="M8.04053 5.93213C8.04053 7.03673 7.14513 7.93213 6.04053 7.93213C4.93596 7.93213 4.04053 7.03673 4.04053 5.93213C4.04053 4.82756 4.93596 3.93213 6.04053 3.93213C7.14513 3.93213 8.04053 4.82756 8.04053 5.93213Z" stroke="#4A9DE8" stroke-width="1.5" stroke-linecap="round" stroke-linejoin="round"/>
<path d="M1.0675 15.2611L4.8882 11.4404C5.56823 10.8454 6.56277 10.7803 7.31458 11.2815L7.82378 11.6209C8.54838 12.104 9.50248 12.0626 10.1826 11.5186L12.8307 9.40004C13.5057 8.86004 14.4459 8.81774 15.1634 9.28054C15.2429 9.33184 15.3137 9.39534 15.3806 9.46234L17.0406 11.1222" stroke="#4A9DE8" stroke-width="1.5" stroke-linecap="round" stroke-linejoin="round"/>
</svg>
